#!OML:ASF E:\Style4\Style4.ASF
:FULLY-SPECIFIED
:DEGREES
2142
root -0.0241825 18.173 -0.187503 4.00993 -5.15444 3.63506
lowerback 1.05456 2.42066 -1.71425
upperback -2.50652 3.15156 -1.2486
thorax -3.18826 1.59756 -0.445308
lowerneck 1.62876 -2.85047 -6.14147
upperneck 7.69226 -4.00345 3.50555
head 2.38908 -2.08594 2.12991
rclavicle 1.74503e-014 7.45443e-015
rhumerus -86.4676 52.0296 -121.445
rradius 85.3905
rwrist -4.45241
rhand -3.25492 30.5606
rfingers 7.12502
rthumb 22.4693 1.8477
lclavicle 1.74503e-014 7.45443e-015
lhumerus -82.3884 -55.1647 114.277
lradius 86.4716
lwrist -19.1629
lhand -22.7513 -2.0557
lfingers 7.12502
lthumb 3.68329 27.8922
rfemur -6.2304 8.90929 14.5824
rtibia 18.0125
rfoot -14.7546 -14.7561
rtoes -12.4595
lfemur 5.2677 -2.77016 -23.2762
ltibia 6.36111e-015
lfoot -10.3429 15.0777
ltoes -14.5002
2143
root -0.022263 18.1728 -0.184703 3.96712 -5.11916 3.66096
lowerback 1.06358 2.40781 -1.70594
upperback -2.49221 3.13465 -1.24878
thorax -3.17796 1.58884 -0.449408
lowerneck 1.5892 -2.85241 -6.10184
upperneck 7.77229 -4.00272 3.46726
head 2.42047 -2.08565 2.10955
rclavicle 5.36959e-014 -1.87852e-014
rhumerus -86.4791 52.0097 -121.457
rradius 85.3977
rwrist -4.46472
rhand -3.31551 30.6124
rfingers 7.12502
rthumb 22.4111 1.89247
lclavicle 5.36959e-014 -1.87852e-014
lhumerus -82.2563 -55.1112 114.133
lradius 86.4531
lwrist -19.3495
lhand -22.6795 -1.98763
lfingers 7.12502
lthumb 3.75265 27.9591
rfemur -6.16754 8.87488 14.5562
rtibia 18.0214
rfoot -14.8185 -14.7548
rtoes -12.4429
lfemur 5.32584 -2.80477 -23.3119
ltibia -4.77083e-015
lfoot -10.4377 15.0556
ltoes -14.2744
2144
root -0.0206066 18.1714 -0.182495 3.9493 -5.10224 3.66272
lowerback 1.05217 2.40376 -1.68835
upperback -2.48634 3.13054 -1.23314
thorax -3.16533 1.58652 -0.442255
lowerneck 1.55615 -2.84629 -6.13207
upperneck 7.85486 -3.99457 3.48165
head 2.45495 -2.08257 2.11973
rclavicle 2.55749e-014 7.25564e-015
rhumerus -86.469 51.9792 -121.427
rradius 85.4019
rwrist -4.46865
rhand -3.31598 30.5772
rfingers 7.12502
rthumb 22.4107 1.85725
lclavicle 2.55749e-014 7.25564e-015
lhumerus -82.1776 -55.0521 114.083
lradius 86.42
lwrist -19.4047
lhand -22.7449 -1.88061
lfingers 7.12502
lthumb 3.68947 28.0672
rfemur -6.13368 8.85457 14.5566
rtibia 18.0182
rfoot -14.8312 -14.784
rtoes -12.6272
lfemur 5.35326 -2.82068 -23.3211
ltibia -2.06736e-014
lfoot -10.4542 15.0521
ltoes -14.2433
2145
root -0.0187132 18.1712 -0.181263 3.9311 -5.10657 3.64131
lowerback 1.07048 2.42514 -1.64289
upperback -2.48932 3.16017 -1.22054
thorax -3.1771 1.60039 -0.45675
lowerneck 1.52313 -2.85996 -6.16331
upperneck 7.94708 -4.01431 3.51494
head 2.49487 -2.09305 2.13586
rclavicle 1.20746e-014 -1.07344e-014
rhumerus -86.4403 51.907 -121.394
rradius 85.4015
rwrist -4.44161
rhand -3.3927 30.4633
rfingers 7.12502
rthumb 22.337 1.73449
lclavicle 1.20746e-014 -1.07344e-014
lhumerus -82.1476 -55.0314 114.082
lradius 86.3886
lwrist -19.4336
lhand -22.8155 -1.85691
lfingers 7.12502
lthumb 3.62125 28.0921
rfemur -6.11027 8.85763 14.5779
rtibia 18.0103
rfoot -14.8187 -14.784
rtoes -12.6204
lfemur 5.3814 -2.8137 -23.3085
ltibia 3.49861e-014
lfoot -10.3111 15.0274
ltoes -14.4289
2146
root -0.0181216 18.1707 -0.180197 3.912 -5.0921 3.64761
lowerback 1.08268 2.42411 -1.64017
upperback -2.48145 3.15908 -1.2066
thorax -3.17647 1.59993 -0.444273
lowerneck 1.48782 -2.87174 -6.19165
upperneck 7.97097 -4.02848 3.51997
head 2.51112 -2.10072 2.14202
rclavicle 7.21107e-014 -7.85199e-015
rhumerus -86.4609 51.928 -121.416
rradius 85.4006
rwrist -4.5096
rhand -3.46281 30.4512
rfingers 7.12502
rthumb 22.2697 1.71432
lclavicle 7.21107e-014 -7.85199e-015
lhumerus -82.0475 -54.9871 113.986
lradius 86.3593
lwrist -19.5016
lhand -22.8297 -1.89266
lfingers 7.12502
lthumb 3.60752 28.0566
rfemur -6.07602 8.89439 14.5772
rtibia 18.0056
rfoot -14.7787 -14.8404
rtoes -12.4964
lfemur 5.40585 -2.82739 -23.3215
ltibia -1.90833e-014
lfoot -10.1638 14.9659
ltoes -14.1459
2147
root -0.0177323 18.1713 -0.180843 3.9172 -5.08308 3.65352
lowerback 1.09349 2.42752 -1.62863
upperback -2.49456 3.16339 -1.20943
thorax -3.19534 1.60185 -0.4547
lowerneck 1.47447 -2.89594 -6.19039
upperneck 8.02787 -4.06037 3.51043
head 2.53405 -2.11717 2.13779
rclavicle -1.59245e-014 3.97569e-015
rhumerus -86.4561 51.9102 -121.429
rradius 85.3963
rwrist -4.57038
rhand -3.37866 30.474
rfingers 7.12502
rthumb 22.3505 1.74683
lclavicle -1.59245e-014 3.97569e-015
lhumerus -82.0115 -54.9489 113.9
lradius 86.3523
lwrist -19.5877
lhand -22.7893 -1.99445
lfingers 7.12502
lthumb 3.64654 27.9541
rfemur -6.06549 8.92645 14.5734
rtibia 17.9801
rfoot -14.8142 -14.8519
rtoes -12.4025
lfemur 5.39285 -2.83707 -23.3224
ltibia 3.18055e-015
lfoot -10.1623 14.8913
ltoes -13.5259
2148
root -0.0163352 18.1711 -0.180432 3.92651 -5.04636 3.60254
lowerback 1.10275 2.42939 -1.56389
upperback -2.5143 3.16779 -1.18584
thorax -3.2187 1.60288 -0.467746
lowerneck 1.4476 -2.91003 -6.22454
upperneck 8.12206 -4.07958 3.52185
head 2.57308 -2.12806 2.14719
rclavicle -1.18463e-014 5.36719e-015
rhumerus -86.4772 51.8527 -121.43
rradius 85.3801
rwrist -4.60134
rhand -3.37337 30.4861
rfingers 7.12502
rthumb 22.3556 1.75953
lclavicle -1.18463e-014 5.36719e-015
lhumerus -82.0351 -54.9216 113.925
lradius 86.3326
lwrist -19.6549
lhand -22.768 -2.00533
lfingers 7.12502
lthumb 3.66713 27.9429
rfemur -6.05801 8.90191 14.6342
rtibia 17.9863
rfoot -14.8529 -14.8401
rtoes -12.4172
lfemur 5.37972 -2.87026 -23.2704
ltibia -1.59028e-015
lfoot -10.1377 14.897
ltoes -13.4673
2149
root -0.0153497 18.1704 -0.177168 3.91929 -5.0258 3.54268
lowerback 1.08736 2.44105 -1.48218
upperback -2.51032 3.1866 -1.16657
thorax -3.2025 1.61048 -0.493285
lowerneck 1.42846 -2.91524 -6.2262
upperneck 8.16032 -4.08564 3.51734
head 2.58967 -2.13139 2.14567
rclavicle -2.71621e-014 1.23246e-014
rhumerus -86.4651 51.7808 -121.388
rradius 85.3875
rwrist -4.58346
rhand -3.41203 30.49
rfingers 7.12502
rthumb 22.3185 1.75899
lclavicle -2.71621e-014 1.23246e-014
lhumerus -82.0529 -54.9416 113.96
lradius 86.2977
lwrist -19.7094
lhand -22.8026 -1.99207
lfingers 7.12502
lthumb 3.63369 27.9567
rfemur -6.04739 8.90898 14.7029
rtibia 18.0263
rfoot -14.855 -14.8841
rtoes -12.6703
lfemur 5.4056 -2.88608 -23.2137
ltibia 7.95139e-015
lfoot -10.1353 14.9146
ltoes -13.6331
2150
root -0.013616 18.1694 -0.171585 3.88552 -5.04226 3.66952
lowerback 1.04772 2.45568 -1.57792
upperback -2.48439 3.20373 -1.20846
thorax -3.15646 1.62066 -0.480928
lowerneck 1.36456 -2.92251 -6.18347
upperneck 8.20359 -4.09072 3.48967
head 2.6139 -2.13311 2.12785
rclavicle -4.26455e-015 5.56597e-015
rhumerus -86.4384 51.7508 -121.341
rradius 85.4111
rwrist -4.60468
rhand -3.37129 30.5205
rfingers 7.12502
rthumb 22.3576 1.79416
lclavicle -4.26455e-015 5.56597e-015
lhumerus -81.9755 -54.9507 113.879
lradius 86.2774
lwrist -19.7145
lhand -22.8692 -2.11472
lfingers 7.12502
lthumb 3.56942 27.8351
rfemur -6.03418 8.85788 14.5501
rtibia 18.0802
rfoot -14.8952 -14.8388
rtoes -12.6083
lfemur 5.45892 -2.87674 -23.3707
ltibia -7.95139e-015
lfoot -10.2495 14.9084
ltoes -13.3936
